<?xml version="1.0" standalone="no"?>
<!DOCTYPE svg PUBLIC "-//W3C//DTD SVG 20010904//EN"
 "http://www.w3.org/TR/2001/REC-SVG-20010904/DTD/svg10.dtd">
<svg version="1.0" xmlns="http://www.w3.org/2000/svg"
 width="512.000000pt" height="512.000000pt" viewBox="0 0 512.000000 512.000000"
 preserveAspectRatio="xMidYMid meet">

<g transform="translate(0.000000,512.000000) scale(0.100000,-0.100000)"
fill="#000000" stroke="none">
<path d="M2266 3825 c-116 -41 -166 -185 -106 -305 21 -40 41 -60 90 -86 34
-18 80 -19 1166 -19 l1131 0 48 30 c65 40 95 97 95 179 -1 104 -53 182 -138
206 -24 6 -411 10 -1142 10 -914 -1 -1112 -3 -1144 -15z"/>
<path d="M980 3819 c-35 -14 -507 -486 -531 -531 -67 -130 40 -298 191 -298
63 0 101 18 163 78 l47 46 0 -820 c0 -922 -2 -893 69 -957 70 -63 164 -74 252
-29 45 22 59 36 82 81 l27 55 0 834 0 835 53 -50 c62 -59 109 -77 183 -71 148
12 237 182 161 309 -14 24 -133 150 -264 280 -190 189 -245 237 -272 243 -48
9 -132 6 -161 -5z"/>
<path d="M2239 2747 c-29 -15 -54 -40 -74 -71 -25 -41 -29 -58 -29 -116 0 -58
4 -75 29 -116 20 -31 45 -56 74 -71 l44 -23 1129 0 c1020 0 1132 2 1161 16 79
40 117 103 117 194 0 66 -16 107 -59 153 -55 60 8 57 -1221 57 l-1127 0 -44
-23z"/>
<path d="M2281 1698 c-66 -15 -126 -79 -141 -152 -17 -83 0 -148 54 -202 24
-25 57 -46 81 -53 54 -15 2223 -16 2277 -1 85 24 137 102 138 206 0 82 -30
139 -95 179 l-48 30 -1111 2 c-698 1 -1127 -3 -1155 -9z"/>
</g>
</svg>
